<?xml version="1.0" encoding="utf-8"?>
<svg version="1.1" id="Layer_1" xmlns="http://www.w3.org/2000/svg" xmlns:xlink="http://www.w3.org/1999/xlink" x="0px" y="0px"
	 viewBox="0 0 151.3 80.2" style="enable-background:new 0 0 151.3 80.2;" xml:space="preserve">
<style type="text/css">
	.st0{clip-path:url(#SVGID_2_);}
</style>
<g>
	<defs>
		<rect id="SVGID_1_" y="0" width="151.3" height="80.2"/>
	</defs>
	<clipPath id="SVGID_2_">
		<use xlink:href="#SVGID_1_"  style="overflow:visible;"/>
	</clipPath>
	<path class="st0" d="M131.8,80.2H19.5C8.8,80.2,0,71.4,0,60.7V34.8h9.9v25.8c0,5.3,4.3,9.6,9.6,9.6h112.3c5.3,0,9.6-4.3,9.6-9.6
		V34.8h9.9v25.8C151.3,71.4,142.6,80.2,131.8,80.2"/>
	<path class="st0" d="M93.1,0c-0.7,0-1.4,0-2.2,0.1c-5.9,0.5-11.4,3.5-15.2,8.1l0,0C73,3.2,68.9,0,63.4,0c-4.1,0-9.2,2.1-11.3,5.1
		l-0.5,0.5l-0.9-0.5V1h-9.8v48.1h10.3V20.1c0.2-5.9,5.2-10.8,11.3-10.8c5.1,0,8.2,3.1,8.2,9.2v30.7h10.2V20.1
		C81,14.1,86,9.2,92.1,9.2c5.1,0,8.2,3.1,8.2,9.2v30.7h10.3V17.4C110.5,7.2,104.3,0,93.1,0"/>
</g>
</svg>
